<mxfile host="app.diagrams.net" agent="Mozilla/5.0 (Windows NT 10.0; Win64; x64) AppleWebKit/537.36 (KHTML, like Gecko) Chrome/134.0.0.0 Safari/537.36" version="26.1.1">
  <diagram name="PÃ¡gina-1" id="DfGLqGvEiMxgEU5vP4-T">
    <mxGraphModel grid="1" page="1" gridSize="10" guides="1" tooltips="1" connect="1" arrows="1" fold="1" pageScale="1" pageWidth="827" pageHeight="1169" math="0" shadow="0">
      <root>
        <mxCell id="0" />
        <mxCell id="1" parent="0" />
        <mxCell id="kUK6isng7qHiw66SMapT-3" value="&lt;span style=&quot;text-wrap-mode: nowrap;&quot;&gt;Cluster Kubernetes&lt;/span&gt;" style="rounded=1;whiteSpace=wrap;html=1;" vertex="1" parent="1">
          <mxGeometry x="350" y="40" width="110" height="40" as="geometry" />
        </mxCell>
        <mxCell id="kUK6isng7qHiw66SMapT-10" style="edgeStyle=orthogonalEdgeStyle;rounded=0;orthogonalLoop=1;jettySize=auto;html=1;" edge="1" parent="1" source="kUK6isng7qHiw66SMapT-5" target="kUK6isng7qHiw66SMapT-8">
          <mxGeometry relative="1" as="geometry" />
        </mxCell>
        <mxCell id="kUK6isng7qHiw66SMapT-5" value="" style="aspect=fixed;sketch=0;html=1;dashed=0;whitespace=wrap;verticalLabelPosition=bottom;verticalAlign=top;fillColor=#2875E2;strokeColor=#ffffff;points=[[0.005,0.63,0],[0.1,0.2,0],[0.9,0.2,0],[0.5,0,0],[0.995,0.63,0],[0.72,0.99,0],[0.5,1,0],[0.28,0.99,0]];shape=mxgraph.kubernetes.icon2;prIcon=node" vertex="1" parent="1">
          <mxGeometry x="380" y="142" width="50" height="48" as="geometry" />
        </mxCell>
        <mxCell id="kUK6isng7qHiw66SMapT-6" value="Masster Node" style="text;html=1;align=center;verticalAlign=middle;resizable=0;points=[];autosize=1;strokeColor=none;fillColor=none;" vertex="1" parent="1">
          <mxGeometry x="355" y="190" width="100" height="30" as="geometry" />
        </mxCell>
        <mxCell id="kUK6isng7qHiw66SMapT-7" style="edgeStyle=orthogonalEdgeStyle;rounded=0;orthogonalLoop=1;jettySize=auto;html=1;exitX=0.5;exitY=1;exitDx=0;exitDy=0;entryX=0.5;entryY=0;entryDx=0;entryDy=0;entryPerimeter=0;" edge="1" parent="1" source="kUK6isng7qHiw66SMapT-3" target="kUK6isng7qHiw66SMapT-5">
          <mxGeometry relative="1" as="geometry" />
        </mxCell>
        <mxCell id="kUK6isng7qHiw66SMapT-23" style="edgeStyle=orthogonalEdgeStyle;rounded=0;orthogonalLoop=1;jettySize=auto;html=1;exitX=0.5;exitY=1;exitDx=0;exitDy=0;exitPerimeter=0;" edge="1" parent="1" source="kUK6isng7qHiw66SMapT-8" target="kUK6isng7qHiw66SMapT-15">
          <mxGeometry relative="1" as="geometry" />
        </mxCell>
        <mxCell id="kUK6isng7qHiw66SMapT-8" value="" style="aspect=fixed;sketch=0;html=1;dashed=0;whitespace=wrap;verticalLabelPosition=bottom;verticalAlign=top;fillColor=#2875E2;strokeColor=#ffffff;points=[[0.005,0.63,0],[0.1,0.2,0],[0.9,0.2,0],[0.5,0,0],[0.995,0.63,0],[0.72,0.99,0],[0.5,1,0],[0.28,0.99,0]];shape=mxgraph.kubernetes.icon2;kubernetesLabel=1;prIcon=node" vertex="1" parent="1">
          <mxGeometry x="150" y="142" width="50" height="48" as="geometry" />
        </mxCell>
        <mxCell id="kUK6isng7qHiw66SMapT-9" value="" style="aspect=fixed;sketch=0;html=1;dashed=0;whitespace=wrap;verticalLabelPosition=bottom;verticalAlign=top;fillColor=#2875E2;strokeColor=#ffffff;points=[[0.005,0.63,0],[0.1,0.2,0],[0.9,0.2,0],[0.5,0,0],[0.995,0.63,0],[0.72,0.99,0],[0.5,1,0],[0.28,0.99,0]];shape=mxgraph.kubernetes.icon2;kubernetesLabel=1;prIcon=node" vertex="1" parent="1">
          <mxGeometry x="600" y="142" width="50" height="48" as="geometry" />
        </mxCell>
        <mxCell id="kUK6isng7qHiw66SMapT-12" style="edgeStyle=orthogonalEdgeStyle;rounded=0;orthogonalLoop=1;jettySize=auto;html=1;entryX=-0.02;entryY=0.516;entryDx=0;entryDy=0;entryPerimeter=0;" edge="1" parent="1" source="kUK6isng7qHiw66SMapT-5" target="kUK6isng7qHiw66SMapT-9">
          <mxGeometry relative="1" as="geometry" />
        </mxCell>
        <mxCell id="kUK6isng7qHiw66SMapT-13" value="Worker Node1" style="text;html=1;align=center;verticalAlign=middle;resizable=0;points=[];autosize=1;strokeColor=none;fillColor=none;" vertex="1" parent="1">
          <mxGeometry x="125" y="190" width="100" height="30" as="geometry" />
        </mxCell>
        <mxCell id="kUK6isng7qHiw66SMapT-14" value="Worker Node2" style="text;html=1;align=center;verticalAlign=middle;resizable=0;points=[];autosize=1;strokeColor=none;fillColor=none;" vertex="1" parent="1">
          <mxGeometry x="575" y="190" width="100" height="30" as="geometry" />
        </mxCell>
        <mxCell id="kUK6isng7qHiw66SMapT-15" value="" style="aspect=fixed;sketch=0;html=1;dashed=0;whitespace=wrap;verticalLabelPosition=bottom;verticalAlign=top;fillColor=#2875E2;strokeColor=#ffffff;points=[[0.005,0.63,0],[0.1,0.2,0],[0.9,0.2,0],[0.5,0,0],[0.995,0.63,0],[0.72,0.99,0],[0.5,1,0],[0.28,0.99,0]];shape=mxgraph.kubernetes.icon2;prIcon=pod" vertex="1" parent="1">
          <mxGeometry x="150" y="420" width="50" height="48" as="geometry" />
        </mxCell>
        <mxCell id="kUK6isng7qHiw66SMapT-16" value="" style="aspect=fixed;sketch=0;html=1;dashed=0;whitespace=wrap;verticalLabelPosition=bottom;verticalAlign=top;fillColor=#2875E2;strokeColor=#ffffff;points=[[0.005,0.63,0],[0.1,0.2,0],[0.9,0.2,0],[0.5,0,0],[0.995,0.63,0],[0.72,0.99,0],[0.5,1,0],[0.28,0.99,0]];shape=mxgraph.kubernetes.icon2;prIcon=pod" vertex="1" parent="1">
          <mxGeometry x="600" y="420" width="50" height="48" as="geometry" />
        </mxCell>
        <mxCell id="kUK6isng7qHiw66SMapT-17" value="Pod1" style="text;html=1;align=center;verticalAlign=middle;resizable=0;points=[];autosize=1;strokeColor=none;fillColor=none;" vertex="1" parent="1">
          <mxGeometry x="150" y="468" width="50" height="30" as="geometry" />
        </mxCell>
        <mxCell id="kUK6isng7qHiw66SMapT-20" value="Pod2" style="text;html=1;align=center;verticalAlign=middle;resizable=0;points=[];autosize=1;strokeColor=none;fillColor=none;" vertex="1" parent="1">
          <mxGeometry x="600" y="468" width="50" height="30" as="geometry" />
        </mxCell>
        <mxCell id="kUK6isng7qHiw66SMapT-22" style="edgeStyle=orthogonalEdgeStyle;rounded=0;orthogonalLoop=1;jettySize=auto;html=1;exitX=0.5;exitY=1;exitDx=0;exitDy=0;exitPerimeter=0;entryX=0.5;entryY=0;entryDx=0;entryDy=0;entryPerimeter=0;" edge="1" parent="1" source="kUK6isng7qHiw66SMapT-9" target="kUK6isng7qHiw66SMapT-16">
          <mxGeometry relative="1" as="geometry" />
        </mxCell>
        <mxCell id="kUK6isng7qHiw66SMapT-37" style="edgeStyle=orthogonalEdgeStyle;rounded=0;orthogonalLoop=1;jettySize=auto;html=1;exitX=0.5;exitY=1;exitDx=0;exitDy=0;entryX=0.5;entryY=0;entryDx=0;entryDy=0;" edge="1" parent="1" source="kUK6isng7qHiw66SMapT-29" target="kUK6isng7qHiw66SMapT-33">
          <mxGeometry relative="1" as="geometry" />
        </mxCell>
        <mxCell id="kUK6isng7qHiw66SMapT-29" value="Ingress Controller" style="rounded=1;whiteSpace=wrap;html=1;" vertex="1" parent="1">
          <mxGeometry x="345" y="349" width="110" height="30" as="geometry" />
        </mxCell>
        <mxCell id="kUK6isng7qHiw66SMapT-33" value="Service" style="rounded=1;whiteSpace=wrap;html=1;" vertex="1" parent="1">
          <mxGeometry x="375" y="430" width="50" height="30" as="geometry" />
        </mxCell>
        <mxCell id="kUK6isng7qHiw66SMapT-34" value="Deployment" style="rounded=1;whiteSpace=wrap;html=1;" vertex="1" parent="1">
          <mxGeometry x="365" y="480" width="70" height="30" as="geometry" />
        </mxCell>
        <mxCell id="kUK6isng7qHiw66SMapT-36" value="Persistent Volume" style="rounded=1;whiteSpace=wrap;html=1;" vertex="1" parent="1">
          <mxGeometry x="350" y="550" width="100" height="30" as="geometry" />
        </mxCell>
        <mxCell id="kUK6isng7qHiw66SMapT-44" style="edgeStyle=none;rounded=0;orthogonalLoop=1;jettySize=auto;html=1;entryX=0.28;entryY=0.99;entryDx=0;entryDy=0;entryPerimeter=0;shape=link;" edge="1" parent="1" source="kUK6isng7qHiw66SMapT-36" target="kUK6isng7qHiw66SMapT-16">
          <mxGeometry relative="1" as="geometry" />
        </mxCell>
        <mxCell id="kUK6isng7qHiw66SMapT-45" style="edgeStyle=none;rounded=0;orthogonalLoop=1;jettySize=auto;html=1;entryX=0.72;entryY=0.99;entryDx=0;entryDy=0;entryPerimeter=0;shape=link;" edge="1" parent="1" source="kUK6isng7qHiw66SMapT-36" target="kUK6isng7qHiw66SMapT-15">
          <mxGeometry relative="1" as="geometry" />
        </mxCell>
        <mxCell id="kUK6isng7qHiw66SMapT-49" style="edgeStyle=none;rounded=0;orthogonalLoop=1;jettySize=auto;html=1;entryX=0.5;entryY=0;entryDx=0;entryDy=0;" edge="1" parent="1" source="kUK6isng7qHiw66SMapT-48" target="kUK6isng7qHiw66SMapT-29">
          <mxGeometry relative="1" as="geometry" />
        </mxCell>
        <mxCell id="kUK6isng7qHiw66SMapT-48" value="&lt;span style=&quot;text-wrap-mode: nowrap;&quot;&gt;Load Balancer&lt;/span&gt;" style="rounded=1;whiteSpace=wrap;html=1;" vertex="1" parent="1">
          <mxGeometry x="357.5" y="290" width="85" height="30" as="geometry" />
        </mxCell>
        <mxCell id="kUK6isng7qHiw66SMapT-53" style="edgeStyle=orthogonalEdgeStyle;rounded=0;orthogonalLoop=1;jettySize=auto;html=1;entryX=1.058;entryY=0.532;entryDx=0;entryDy=0;entryPerimeter=0;" edge="1" parent="1" source="kUK6isng7qHiw66SMapT-33" target="kUK6isng7qHiw66SMapT-15">
          <mxGeometry relative="1" as="geometry" />
        </mxCell>
        <mxCell id="kUK6isng7qHiw66SMapT-54" style="edgeStyle=orthogonalEdgeStyle;rounded=0;orthogonalLoop=1;jettySize=auto;html=1;entryX=0.003;entryY=0.509;entryDx=0;entryDy=0;entryPerimeter=0;" edge="1" parent="1" source="kUK6isng7qHiw66SMapT-33" target="kUK6isng7qHiw66SMapT-16">
          <mxGeometry relative="1" as="geometry" />
        </mxCell>
      </root>
    </mxGraphModel>
  </diagram>
</mxfile>
